<svg id="Icons" height="512" viewBox="0 0 512 512" width="512" xmlns="http://www.w3.org/2000/svg"><circle cx="256" cy="256" fill="#15be79" r="256"/><path d="m490.58 358.54c-54.22 124.29-197.05 185.46-325.24 136.87-126.43-47.88-192.86-185.1-154.65-312.61 22.29-9.86 40.43-30.44 64.58-35.42 26-5.37 54.68 11.42 62.72 36.7 5.48 17.17 2.23 36.35 8.72 53.17 7.18 18.63 26.88 31.66 46.84 31 7.92-.27 15.89-2.47 23.66-.91 11.79 2.32 20.39 12.66 31.79 16.33 13.87 4.5 28.92-1.6 41.36-9.23s24.32-17.07 38.58-20.14c24.65-5.29 49.94 10.64 63.41 31.95 10 15.73 15.62 34.93 30.22 46.49 19.1 15.14 48.14 12.71 68.01 25.8z" fill="#14a36d"/><path d="m212.5 437a20.06 20.06 0 1 1 -10.89-17.83 20.06 20.06 0 0 1 10.89 17.83z" fill="#334353"/><path d="m203.83 428.35a20.05 20.05 0 0 1 -20.05 20 19.81 19.81 0 0 1 -9.17-2.22 20 20 0 0 1 27-27 19.78 19.78 0 0 1 2.22 9.22z" fill="#3e4e60"/><path d="m199.44 442.61a8 8 0 0 1 -2.44 1.69 8.23 8.23 0 0 1 -3.47.76 8.34 8.34 0 0 1 -5.91-2.45l-25.62-25.61h30.47l8.46 15.79a8.35 8.35 0 0 1 -1.49 9.82z" fill="#c2aacf"/><path d="m197 444.3a8.23 8.23 0 0 1 -3.47.76 8.34 8.34 0 0 1 -5.91-2.45l-21.53-21.52h22.22l8.46 15.78a8.35 8.35 0 0 1 .23 7.43z" fill="#decee5"/><path d="m325.6 437a20.06 20.06 0 1 1 -10.89-17.83 20.06 20.06 0 0 1 10.89 17.83z" fill="#334353"/><path d="m316.93 428.35a20.05 20.05 0 0 1 -20.05 20 19.81 19.81 0 0 1 -9.17-2.22 20 20 0 0 1 27-27 19.78 19.78 0 0 1 2.22 9.22z" fill="#3e4e60"/><path d="m312.54 442.61a8 8 0 0 1 -2.44 1.69 8.19 8.19 0 0 1 -3.47.76 8.34 8.34 0 0 1 -5.91-2.45l-25.65-25.61h30.47l8.46 15.75a8.35 8.35 0 0 1 -1.46 9.86z" fill="#c2aacf"/><path d="m310.1 444.3a8.19 8.19 0 0 1 -3.47.76 8.34 8.34 0 0 1 -5.91-2.45l-21.53-21.52h22.22l8.46 15.78a8.35 8.35 0 0 1 .23 7.43z" fill="#decee5"/><path d="m163.89 244a29.48 29.48 0 0 0 -29.46 29.45v69.3a29.38 29.38 0 0 0 5 16.46 29.45 29.45 0 0 0 24.43 13h176.28l34.35-128.21zm-9.54 98.75v-24.75h30.37v34.23h-20.83a9.56 9.56 0 0 1 -9.43-8.08 10.14 10.14 0 0 1 -.11-1.42zm50.3-24.75h32v34.23h-32zm51.89 0h32v34.23h-32zm51.88 34.23v-34.23h25.58l-9.17 34.23zm30.94-54.15h-30.94v-34.18h40.11zm-50.86 0h-32v-34.18h32zm-51.88 0h-32v-34.18h32zm-51.9 0h-30.37v-24.65a9.55 9.55 0 0 1 9.54-9.53h20.83z" fill="#c2aacf"/><path d="m163.89 244a29.48 29.48 0 0 0 -29.46 29.45v69.3a29.38 29.38 0 0 0 5 16.46 29.26 29.26 0 0 0 16.46 5h176.28l32.22-120.21zm-17.51 108.27v-42.2h38.34v42.2zm0-54.15v-32.65a9.55 9.55 0 0 1 9.54-9.54h28.8v42.19zm90.24 19.88v34.23h-39.94v-42.2h39.94zm0-54.14v34.22h-39.94v-42.15h39.94zm51.88 54.14v34.23h-39.93v-42.2h39.93zm0-54.14v34.22h-39.93v-42.15h39.93zm45.5 54.14-9.17 34.23h-24.38v-42.2h35.71zm-33.58-19.92v-42.15h50.22l-2.14 8-9.17 34.22h-38.88z" fill="#decee5"/><g fill="#f4e6f4"><ellipse cx="196.41" cy="249.96" rx="29.19" ry="5.98"/><ellipse cx="212.35" cy="302.27" rx="20.24" ry="4.14"/><ellipse cx="228.28" cy="356.41" rx="20.24" ry="4.14"/><ellipse cx="255.84" cy="249.96" rx="19.22" ry="3.94"/></g><path d="m439.57 224.86a10 10 0 0 1 -10 10h-44.33a10.82 10.82 0 0 0 -10.44 8l-40.8 152.26a29.5 29.5 0 0 1 -28.46 21.88h-155.07a10 10 0 0 1 0-19.92h155.07a9.55 9.55 0 0 0 9.21-7.07l40.81-152.3a30.76 30.76 0 0 1 29.68-22.77h44.37a10 10 0 0 1 10 10z" fill="#c2aacf"/><path d="m431.61 216.89a10 10 0 0 1 -10 10h-44.34a10.8 10.8 0 0 0 -10.43 8l-40.84 152.27a29.5 29.5 0 0 1 -28.43 21.84h-155.06a10 10 0 0 1 -1.83-.17 9.95 9.95 0 0 1 9.79-11.83h155.07a9.55 9.55 0 0 0 9.21-7.07l40.81-152.3a30.76 30.76 0 0 1 29.68-22.77h44.37a10 10 0 0 1 1.83.17 9.94 9.94 0 0 1 .17 1.86z" fill="#decee5"/><ellipse cx="170.71" cy="403.01" fill="#f4e6f4" rx="22.63" ry="4.63"/><ellipse cx="216.79" cy="403.01" fill="#f4e6f4" rx="14.91" ry="3.05"/><path d="m432.09 217.58v13.49a9 9 0 0 1 -9 9h-31.49a9 9 0 0 1 -9-9v-13.49a9 9 0 0 1 9-9h31.53a9 9 0 0 1 8.96 9z" fill="#334353"/><path d="m432.09 217.58v3.42a9 9 0 0 1 -9 9h-31.49a9 9 0 0 1 -9-9v-3.39a9 9 0 0 1 9-9h31.53a9 9 0 0 1 8.96 8.97z" fill="#3e4e60"/><ellipse cx="399.61" cy="215.62" fill="#3f6c8e" rx="10.89" ry="4.17"/><ellipse cx="420.14" cy="215.62" fill="#3f6c8e" rx="7.72" ry="2.96"/><path d="m342.38 128.44a86.39 86.39 0 1 1 -86.38-86.38 86 86 0 0 1 86.38 86.38z" fill="#ebd9ea"/><path d="m342.38 128.44a86 86 0 0 1 -20.05 55.33 86.38 86.38 0 0 1 -121.66-121.67 86.39 86.39 0 0 1 141.71 66.34z" fill="#f9f2f9"/><ellipse cx="268.44" cy="65.36" fill="#fff" rx="17.15" ry="30.6" transform="matrix(.161 -.987 .987 .161 160.83 319.82)"/><ellipse cx="314.91" cy="89.24" fill="#fff" rx="10.55" ry="18.83" transform="matrix(.772 -.635 .635 .772 14.99 220.32)"/><path d="m302 124.94h-42v-42a3.5 3.5 0 1 0 -7 0v42h-42a3.5 3.5 0 0 0 0 7h42v42a3.5 3.5 0 1 0 7 0v-42h42a3.5 3.5 0 0 0 0-7z" fill="#50755c"/></svg>