<svg id="Layer_1" enable-background="new 0 0 511.986 511.986" height="512" viewBox="0 0 511.986 511.986" width="512" xmlns="http://www.w3.org/2000/svg"><g><g><circle cx="125.656" cy="345.093" fill="#9d66d5" r="62.718"/></g><g><g><path d="m275.679 137.668h207.36c-39.858-76.32-117.057-130.041-207.36-136.909z" fill="#9d66d5"/></g></g><path d="m480.971 133.762h-144.642c-24.139 0-43.708-19.569-43.708-43.708v-74.677c0-6.123-3.593-11.393-8.777-13.859-96.313-10.421-187.96 33.698-240.506 111.941v.016c-33.227 49.48-48.068 108.818-42.015 168.61.005.054.011.107.016.161 12.773 125.386 115.83 223.34 241.933 229.421 61.544 3.013 119.421-15.856 165.719-50.43l85.315-298.91c-3.869-9.833-8.328-19.37-13.335-28.565zm-380.679 235.834c-.415-.473-.829-.947-1.24-1.423-13.897-16.055-2.42-41.024 18.814-41.024h.985c13.694 0 24.801 11.085 24.822 24.779 0 .377.001.756.002 1.137.035 22.848-28.303 33.695-43.383 16.531z" fill="#8659b9"/><g><g><g><path d="m511.986 255.994c0-33.061-6.271-64.656-17.683-93.665h-263.158v239.148h160.337c55.379 0 103.687-38.502 115.054-92.702 3.572-17.032 5.45-34.687 5.45-52.781z" fill="#f6e738"/></g><path d="m488.008 282.375-165.048 91.918c0 .104.001.208.004.311.246 10.119-8.78 18.521-18.902 18.521h-29.871c-14.948 0-27.067-12.118-27.067-27.067v-203.73h-91.375c-14.949 0-27.067 12.118-27.067 27.067v244.758c0 14.949 12.118 27.067 27.067 27.067h253.229c11.503-8.59 22.304-18.133 32.257-28.567h.023c11.638-12.201 22.081-25.55 31.144-39.861l22.143-43.765c5.233-13.411 9.368-27.373 12.295-41.773v-6.047c0-10.4-8.431-18.832-18.832-18.832z" fill="#ecd833"/><g><path d="m483.009 282.375h-112.481v91.904h112.528c5.215-9.991 7.609-15.783 11.481-25.255v-55.121c-.001-6.367-5.161-11.528-11.528-11.528z" fill="#9bd069"/></g><g><path d="m386.066 370.606c-6.909 0-12.51-5.601-12.51-12.51 0-7.224 5.856-13.08 13.08-13.08h54.494c3.038 0 5.75-2.22 6.039-5.244.331-3.469-2.388-6.388-5.789-6.388h-61.742c-3.359 0-6.083-2.723-6.083-6.083 0-3.359 2.724-6.083 6.083-6.083h28.72c3.038 0 5.75-2.22 6.039-5.244.331-3.469-2.388-6.388-5.789-6.388h-28.97c-3.359 0-6.083-2.723-6.083-6.083v-21.129h-38.365c-6.909 0-12.51 5.601-12.51 12.51v85.387c0 6.909 5.601 12.51 12.51 12.51h137.195c4.45-7.027 8.392-13.887 12.548-22.175z" fill="#69b76b"/></g></g><g><g><g><path d="m277.663 336.7v-292.757c0-8.48-6.875-15.355-15.355-15.355h-183.654v308.112z" fill="#05cdff"/></g></g><g><g><path d="m96.757 333.101c-8.48 0-15.355-6.875-15.355-15.355v-289.157h-37.667c-8.48 0-15.355 6.875-15.355 15.355v296.417c0 8.48 6.875 15.355 15.355 15.355h218.573c8.48 0 15.355-6.875 15.355-15.355v-7.26z" fill="#3a84ff"/></g></g><g><g><path d="m91.161 325.587v-210.751l3.234-67.687h142.07c8.502 0 15.395 6.892 15.395 15.395v247.649c0 8.501-6.891 15.395-15.392 15.395-38.931-.001-132.06-.001-145.307-.001z" fill="#fff"/></g></g><g><g><path d="m202.723 56.756v-31.77c0-3.514-2.849-6.363-6.363-6.363h-72.913v38.133z" fill="#3342aa"/></g></g><g><g><path d="m131.066 55.136c-3.514 0-6.363-2.849-6.363-6.363 0-4.231 3.43-7.661 7.661-7.661h41.946c2.703 0 4.895-2.192 4.895-4.895 0-2.703-2.192-4.895-4.895-4.895h-36.906c-7.014 0-12.7-5.686-12.7-12.7h-19.866c-3.514 0-6.363 2.849-6.363 6.363v32.255c0 3.514 2.849 6.363 6.363 6.363h91.523c3.514 0 6.363-2.849 6.363-6.363v-2.104z" fill="#2b3890"/></g></g></g><g><g><path d="m213.044 146.901h-33.799c-4.467 0-8.088-3.621-8.088-8.088v-33.799c0-4.467 3.621-8.088 8.088-8.088h33.799c4.467 0 8.088 3.621 8.088 8.088v33.799c0 4.467-3.621 8.088-8.088 8.088z" fill="#d0fbfd"/></g></g><g><g><path d="m213.044 221.001h-33.799c-4.467 0-8.088-3.621-8.088-8.088v-33.799c0-4.467 3.621-8.088 8.088-8.088h33.799c4.467 0 8.088 3.621 8.088 8.088v33.799c0 4.467-3.621 8.088-8.088 8.088z" fill="#d0fbfd"/></g></g><g><g><path d="m213.044 295.101h-33.799c-4.467 0-8.088-3.621-8.088-8.088v-33.799c0-4.467 3.621-8.088 8.088-8.088h33.799c4.467 0 8.088 3.621 8.088 8.088v33.799c0 4.467-3.621 8.088-8.088 8.088z" fill="#d0fbfd"/></g></g><g><g><path d="m213.044 137.254h-33.799c-4.467 0-8.088-3.621-8.088-8.088v-33.798c0-4.467 3.621-8.088 8.088-8.088h33.799c4.467 0 8.088 3.621 8.088 8.088v33.799c0 4.466-3.621 8.087-8.088 8.087z" fill="#05cdff"/></g></g><g><g><path d="m213.044 211.355h-33.799c-4.467 0-8.088-3.621-8.088-8.088v-33.799c0-4.467 3.621-8.088 8.088-8.088h33.799c4.467 0 8.088 3.621 8.088 8.088v33.799c0 4.467-3.621 8.088-8.088 8.088z" fill="#05cdff"/></g></g><g><g><path d="m213.044 285.455h-33.799c-4.467 0-8.088-3.621-8.088-8.088v-33.799c0-4.467 3.621-8.088 8.088-8.088h33.799c4.467 0 8.088 3.621 8.088 8.088v33.799c0 4.467-3.621 8.088-8.088 8.088z" fill="#05cdff"/></g></g><g><g><path d="m146.228 135.106c0-3.552-2.879-6.431-6.431-6.431h-35.23c-3.738 0-6.999-2.881-7.111-6.618-.116-3.867 2.984-7.038 6.824-7.038h22.284c3.552 0 6.431-2.879 6.431-6.431 0-3.552-2.879-6.431-6.431-6.431h-29.11v-55.01h-29.545c-8.502 0-15.395 6.892-15.395 15.395v247.65c0 8.502 6.892 15.395 15.395 15.395h29.545v-25.626c0-5.214 4.227-9.441 9.441-9.441h32.902c3.552 0 6.431-2.879 6.431-6.431 0-3.552-2.879-6.431-6.431-6.431h-35.516c-3.771 0-6.828-3.057-6.828-6.828 0-3.771 3.057-6.828 6.828-6.828h22.284c3.552 0 6.431-2.879 6.431-6.431 0-3.552-2.879-6.431-6.431-6.431h-29.111v-28.82c0-3.771 3.057-6.828 6.828-6.828h35.516c3.552 0 6.431-2.879 6.431-6.431 0-3.552-2.879-6.431-6.431-6.431h-42.344v-6.982c0-.972.154-1.949.543-2.839 1.168-2.671 3.767-4.22 6.488-4.139l3.669.11c3.55.106 6.514-2.686 6.62-6.236.106-3.55-2.686-6.515-6.236-6.621l-11.085-.331v-27.228c0-3.771 3.057-6.828 6.828-6.828h35.516c3.552.001 6.431-2.878 6.431-6.43z" fill="#d0fbfd"/></g></g><g><g><g><path d="m78.916 92.512h54.08v12.862h-54.08z" fill="#05cdff"/></g></g></g><g><g><g><path d="m78.916 119.029h67.312v12.862h-67.312z" fill="#05cdff"/></g></g></g><g><g><g><path d="m78.916 166.467h35.859v12.862h-35.859z" fill="#05cdff"/></g></g></g><g><g><g><path d="m78.916 192.984h67.312v12.862h-67.312z" fill="#05cdff"/></g></g></g><g><g><g><path d="m78.916 241.495h54.08v12.862h-54.08z" fill="#05cdff"/></g></g></g><g><g><g><path d="m78.916 268.012h67.312v12.862h-67.312z" fill="#05cdff"/></g></g></g><g><g><g><path d="m203.978 276.123c-2.057 0-4.115-.784-5.684-2.355l-15.486-15.485c-3.14-3.139-3.14-8.229-.001-11.368 3.14-3.139 8.23-3.14 11.368 0l9.802 9.801 16.956-16.958c3.14-3.139 8.229-3.139 11.369 0 3.139 3.139 3.139 8.229 0 11.368l-22.641 22.642c-1.569 1.57-3.627 2.355-5.683 2.355z" fill="#3342aa"/></g></g></g><g><g><g><path d="m203.978 205.384c-2.057 0-4.115-.785-5.684-2.355l-15.486-15.485c-3.14-3.139-3.14-8.229-.001-11.368 3.14-3.139 8.23-3.14 11.368 0l9.802 9.801 16.956-16.958c3.14-3.139 8.229-3.139 11.369 0 3.139 3.139 3.139 8.229 0 11.368l-22.641 22.642c-1.569 1.57-3.627 2.355-5.683 2.355z" fill="#3342aa"/></g></g></g><g><g><g><path d="m185.185 131.181c-1.92 0-3.84-.733-5.306-2.198-2.93-2.93-2.93-7.681 0-10.61l22.37-22.37c2.931-2.93 7.681-2.93 10.611 0s2.93 7.681 0 10.61l-22.37 22.37c-1.464 1.465-3.385 2.198-5.305 2.198z" fill="#f5415f"/></g></g><g><g><path d="m207.555 131.181c-1.92 0-3.84-.733-5.306-2.198l-22.37-22.37c-2.93-2.93-2.93-7.681 0-10.61 2.931-2.93 7.681-2.93 10.611 0l22.37 22.37c2.93 2.93 2.93 7.681 0 10.61-1.465 1.465-3.385 2.198-5.305 2.198z" fill="#f5415f"/></g></g></g></g></g></svg>